<svg xmlns="http://www.w3.org/2000/svg" viewBox="0 0 512 512" width="24" height="24">
  <rect width="512" height="512" rx="120" fill="#7360F2"/>
  <path d="M374.2 301.9c-11.8-4-34.9-16-40.8-18.1-5.9-2.1-10.2-3.2-14.5 3.2-4.3 6.4-16.6 20.8-20.4 25.1-3.7 4.3-7.5 4.8-19.3.8-11.8-4-49.8-18.4-94.9-58.6-35.1-31.3-58.8-70-65.7-81.8-6.9-11.8-.7-18.1 5.2-24 5.4-5.3 11.8-13.8 17.7-20.8 5.9-6.9 7.9-11.8 11.8-19.7 4-7.9 2-14.9-1-21.3-3-6.4-26.2-63.2-35.9-86.6-9.5-22.7-19.1-19.6-26.2-19.6-6.7 0-14.4-.8-22 1-7.7 1.8-20.2 6.6-28.7 15.9s-32.5 31.8-32.5 77.6c0 45.8 33.3 90 38 96.4 4.6 6.4 65.5 100.1 158.7 140.4 22.1 9.6 39.4 15.3 52.8 19.6 22.3 7.1 42.6 6.1 58.6 3.7 17.9-2.7 36.8-15 42-29.4 5.2-14.4 5.2-26.8 3.7-29.4-1.5-2.6-5.4-4.2-17.2-10.2z" fill="#FFF" transform="translate(48, 48) scale(0.8)"/>
</svg>
